<svg width="200" height="200" viewBox="0 0 200 200" fill="none" xmlns="http://www.w3.org/2000/svg">
<g mask="url(#0fabd37d-87f3-4e9b-b2fb-4e4a0e39870c)"><circle data-gra="graph-name" fill="#a0937e" cx="83.55120761801345" cy="83.55120761801345" r="83.55120761801345"></circle> <g fill="#ffffff" transform="translate(23.791209296480247,40.67320926596267)"><g data-gra="path-name" fill-rule="" class="tp-name" transform="translate(4.269996643066406,0)"><g transform="scale(1)"><g><path d="M4.74-62.65L4.74-62.65Q4.54-62.4 4.32-62.21 4.1-62.01 3.81-62.01L3.81-62.01Q3.47-62.01 3.25-62.3 3.03-62.6 3.03-62.94L3.03-62.94Q3.03-62.99 3.08-63.09 3.13-63.18 3.13-63.28L3.13-63.28 3.42-63.38Q3.81-63.38 4.15-63.13 4.49-62.89 4.74-62.65ZM18.65-27.88L18.65-27.83 18.65-27.69Q18.6-27.83 18.6-27.95 18.6-28.08 18.6-28.17L18.6-28.17 18.65-27.88ZM52.69-50.34L52.69-50.34Q52.69-49.61 52.64-48.68 52.59-47.75 52.47-46.78 52.34-45.8 52.17-44.9 52-43.99 51.76-43.31L51.76-43.31Q51.07-41.65 49.98-40.28 48.88-38.92 48.24-37.21L48.24-37.21Q48.1-36.77 47.41-36.23 46.73-35.69 45.9-35.16 45.07-34.62 44.26-34.16 43.46-33.69 43.02-33.4L43.02-33.4Q40.23-31.69 37.45-30.81 34.67-29.93 31.45-29.93L31.45-29.93 31.15-29.93Q30.37-30.37 29.86-30.52 29.35-30.66 28.42-30.66L28.42-30.66Q27.49-30.66 26.61-30.62 25.73-30.57 24.85-30.47L24.85-30.47Q24.51-30.42 23.51-30.1 22.51-29.79 21.44-29.37 20.36-28.96 19.51-28.54 18.65-28.13 18.65-27.88L18.65-27.88 18.65-27.69Q18.75-27.34 18.9-27.34L18.9-27.34Q19.14-27.34 19.36-27.61 19.58-27.88 19.87-27.88L19.87-27.88Q20.12-27.88 20.26-27.64 20.41-27.39 20.48-27.08 20.56-26.76 20.58-26.44 20.61-26.12 20.61-25.98L20.61-25.98Q20.61-24.56 20.31-23.17 20.02-21.78 20.02-20.36L20.02-20.36Q20.02-18.95 20-17.55 19.97-16.16 19.97-14.75L19.97-14.75Q19.97-12.16 20.24-10.84 20.51-9.52 21.29-8.86 22.07-8.2 23.44-7.89 24.8-7.57 27-6.98L27-6.98Q26.86-6.54 26.86-6.15L26.86-6.15Q26.86-5.57 27.22-5.3 27.59-5.03 28-4.76 28.42-4.49 28.78-4.15 29.15-3.81 29.15-3.08L29.15-3.08Q29.15-2.44 28.66-1.95L28.66-1.95Q28.08-1.37 27.91-0.98 27.73-0.59 27.59-0.37 27.44-0.15 27.05-0.02 26.66 0.1 25.63 0.15L25.63 0.15Q23.29 0.29 21 0.29L21 0.29Q20.12 0.29 19.24 0.27 18.36 0.24 17.43 0.24L17.43 0.24Q15.09 0.24 12.84 0.39L12.84 0.39Q11.47 0.49 10.18 0.83 8.89 1.17 7.47 1.17L7.47 1.17Q5.86 1.17 5.27 0.24 4.69-0.68 4.69-2.15L4.69-2.15Q4.69-3.56 5.32-4.52 5.96-5.47 6.91-6.08 7.86-6.69 8.96-7.08 10.06-7.47 11.01-7.84 11.96-8.2 12.6-8.59 13.23-8.98 13.23-9.62L13.23-9.62Q13.23-10.21 13.01-10.74 12.79-11.28 12.79-11.87L12.79-11.87Q12.79-12.21 13.13-13.18 13.48-14.16 13.48-15.48L13.48-15.48Q13.48-16.02 13.48-16.53 13.48-17.04 13.43-17.58L13.43-17.58Q13.13-17.72 12.99-18.16 12.84-18.6 12.77-19.12 12.7-19.63 12.7-20.14 12.7-20.65 12.7-20.95L12.7-20.95Q12.7-22.8 12.94-24.63 13.18-26.46 13.18-28.32L13.18-28.32Q13.18-29.49 13.04-30.62 12.89-31.74 12.89-32.91L12.89-32.91Q12.89-33.25 13.09-33.4L13.09-33.4Q12.65-33.74 12.65-34.38L12.65-34.38Q12.65-35.06 12.87-35.64 13.09-36.23 13.09-36.87L13.09-36.87Q13.09-37.84 12.89-38.82 12.7-39.79 12.48-40.75 12.26-41.7 12.08-42.65 11.91-43.6 11.91-44.58L11.91-44.58Q11.91-45.17 12.08-45.7 12.26-46.24 12.43-46.8 12.6-47.36 12.77-47.92 12.94-48.49 12.94-49.12L12.94-49.12Q12.94-50.78 12.62-52.37 12.3-53.96 12.3-55.62L12.3-55.62Q12.3-56.59 12.77-57.06 13.23-57.52 13.77-57.81 14.31-58.11 14.77-58.37 15.23-58.64 15.23-59.18L15.23-59.18Q15.23-59.52 14.92-59.77 14.6-60.01 14.31-60.01L14.31-60.01Q13.62-60.01 13.13-59.57 12.65-59.13 12.01-59.13L12.01-59.13Q11.62-59.13 11.3-59.64 10.99-60.16 10.62-60.74 10.25-61.33 9.79-61.84 9.33-62.35 8.69-62.35L8.69-62.35Q8.15-62.35 7.62-62.21 7.08-62.06 6.54-62.06L6.54-62.06Q5.81-62.06 5.62-62.4 5.42-62.74 5.42-63.28L5.42-63.28Q5.42-63.53 5.44-63.77 5.47-64.01 5.47-64.26L5.47-64.26Q5.47-64.65 5.32-65.09 5.18-65.53 4.64-65.53L4.64-65.53Q4.35-65.53 4.05-65.43L4.05-65.43Q4.74-66.31 5.86-66.77 6.98-67.24 8.23-67.48 9.47-67.72 10.77-67.85 12.06-67.97 13.09-68.21L13.09-68.21Q13.48-68.31 13.79-68.36 14.11-68.41 14.5-68.41L14.5-68.41Q15.38-68.41 16.24-68.24 17.09-68.07 17.92-68.07L17.92-68.07Q18.85-68.07 19.41-68.48 19.97-68.9 20.75-68.9L20.75-68.9Q21.14-68.7 21.78-68.43 22.41-68.16 22.8-68.16L22.8-68.16Q24.46-68.16 26.07-68.36 27.69-68.55 29.3-68.55L29.3-68.55Q31.05-68.55 32.69-68.09 34.33-67.63 35.96-67.04 37.6-66.46 39.21-65.87 40.82-65.28 42.53-64.99L42.53-64.99Q43.12-64.89 43.68-64.55 44.24-64.21 44.78-63.75 45.31-63.28 45.83-62.79 46.34-62.3 46.78-61.96L46.78-61.96Q47.46-61.43 47.88-60.74 48.29-60.06 48.71-59.35 49.12-58.64 49.58-57.98 50.05-57.32 50.78-56.84L50.78-56.84Q51.46-56.4 51.86-55.59 52.25-54.79 52.42-53.86 52.59-52.93 52.64-52 52.69-51.07 52.69-50.34ZM44.63-47.36L44.63-47.36Q44.63-50.49 43.68-53.05 42.72-55.62 40.94-57.45 39.16-59.28 36.62-60.3 34.08-61.33 30.96-61.33L30.96-61.33Q30.47-61.33 29.49-61.33 28.52-61.33 27.34-61.28 26.17-61.23 24.9-61.13 23.63-61.04 22.56-60.86 21.48-60.69 20.68-60.42 19.87-60.16 19.63-59.77L19.63-59.77Q19.29-59.23 18.68-58.47 18.07-57.71 18.07-57.13L18.07-57.13Q18.07-56.59 18.36-56.03 18.65-55.47 19.02-54.83 19.38-54.2 19.7-53.54 20.02-52.88 20.02-52.2L20.02-52.2Q19.63-52.15 19.29-51.98 18.95-51.81 18.95-51.37L18.95-51.37Q18.95-50.63 19.41-49.76 19.87-48.88 19.87-47.95L19.87-47.95Q19.87-47.27 19.58-46.9 19.29-46.53 18.95-46.29 18.6-46.04 18.31-45.8 18.02-45.56 18.02-45.17L18.02-45.17Q18.02-44.73 18.65-43.7 19.29-42.68 20.07-41.53 20.85-40.38 21.48-39.43 22.12-38.48 22.12-38.28L22.12-38.28Q23.29-38.13 24.41-38.13L24.41-38.13Q25.15-38.13 26.83-38.21 28.52-38.28 30.37-38.4 32.23-38.53 33.84-38.67 35.45-38.82 36.04-38.96L36.04-38.96Q36.67-39.11 36.91-39.4 37.16-39.7 37.4-39.99 37.65-40.28 38.01-40.5 38.38-40.72 39.21-40.72L39.21-40.72Q40.72-40.72 41.77-41.26 42.82-41.8 43.46-42.7 44.09-43.6 44.36-44.8 44.63-46 44.63-47.36ZM114.01-48.73L114.01-48.73Q114.01-48.54 113.77-47.95 113.53-47.36 113.21-46.68 112.89-46 112.55-45.41 112.21-44.82 112.01-44.63L112.01-44.63 112.11-44.58Q112.01-44.58 111.91-44.53L111.91-44.53 111.67-44.53Q111.47-44.48 111.25-44.48 111.04-44.48 110.79-44.48L110.79-44.48 110.99-44.53Q109.86-44.58 108.96-44.95 108.06-45.31 107.47-46.34L107.47-46.34Q107.37-46.53 107.18-47.05 106.98-47.56 106.79-48.14 106.59-48.73 106.47-49.24 106.35-49.76 106.35-50L106.35-50Q106.35-50.39 106.42-50.83 106.49-51.27 106.49-51.66L106.49-51.66Q106.49-53.17 106.2-54.64 105.91-56.1 105.91-57.62L105.91-57.62Q105.91-58.59 106.15-59.52 106.4-60.45 107.03-61.23L107.03-61.23 106.79-61.23Q106.2-61.23 105.86-61.6 105.52-61.96 104.74-61.96L104.74-61.96Q102.88-61.96 101.12-61.52 99.37-61.08 97.41-61.08L97.41-61.08Q96.63-61.08 95.85-61.11 95.07-61.13 94.24-61.13L94.24-61.13Q92.72-61.13 91.26-60.79 89.79-60.45 88.43-60.45L88.43-60.45Q88.28-60.45 88.28-60.5L88.28-60.5Q88.28-60.6 88.62-60.77 88.96-60.94 88.96-61.04L88.96-61.04Q88.96-61.23 88.65-61.23 88.33-61.23 88.23-61.23L88.23-61.23Q87.84-61.23 87.57-60.84 87.3-60.45 86.77-60.3L86.77-60.3Q86.04-60.11 85.21-60.11 84.38-60.11 83.59-60.11L83.59-60.11Q83.11-60.11 82.18-60.16 81.25-60.21 80.32-60.38 79.39-60.55 78.64-60.91 77.88-61.28 77.78-61.96L77.78-61.96Q77.25-61.82 77.08-61.45 76.9-61.08 76.78-60.69 76.66-60.3 76.42-59.99 76.17-59.67 75.44-59.62L75.44-59.62Q74.07-59.52 73.68-58.74 73.29-57.96 73.29-56.98L73.29-56.98Q73.29-56.45 73.34-55.91 73.39-55.37 73.39-54.83L73.39-54.83Q73.39-52.88 73.32-50.95 73.24-49.02 73.24-47.07L73.24-47.07Q73.24-46.24 73.27-44.85 73.29-43.46 73.46-42.11 73.63-40.77 73.97-39.72 74.32-38.67 74.95-38.53L74.95-38.53Q75.34-38.43 75.78-38.4 76.22-38.38 76.66-38.38L76.66-38.38Q78.37-38.38 80-38.77 81.64-39.16 83.35-39.16L83.35-39.16Q84.03-39.16 84.64-38.96 85.25-38.77 85.89-38.77L85.89-38.77Q86.82-38.77 87.33-39.67 87.84-40.58 88.06-41.77 88.28-42.97 88.33-44.19 88.38-45.41 88.38-46L88.38-46Q88.38-47.22 88.31-48.41 88.23-49.61 88.23-50.83L88.23-50.83 88.53-50.83Q89.75-50.83 90.82-50.44 91.89-50.05 93.07-50.05L93.07-50.05Q93.55-50.05 93.8-50.1L93.8-50.1Q93.8-49.12 94.14-48.14 94.48-47.17 94.48-46.14L94.48-46.14Q94.48-44.87 93.12-44.53L93.12-44.53Q93.51-43.85 93.75-43.16 93.99-42.48 93.99-41.75L93.99-41.75Q93.99-41.21 93.9-40.7 93.8-40.19 93.8-39.65L93.8-39.65Q93.8-39.16 94.12-38.89 94.43-38.62 94.43-38.28L94.43-38.28Q94.43-37.7 93.97-36.82 93.51-35.94 93.51-35.01L93.51-35.01Q93.51-33.94 93.7-32.76 93.9-31.59 94.14-30.32 94.38-29.05 94.58-27.76 94.78-26.46 94.78-25.15L94.78-25.15Q94.78-24.37 94.7-23.54 94.63-22.71 94.36-21.95 94.09-21.19 93.63-20.56 93.16-19.92 92.43-19.48L92.43-19.48Q91.5-19.58 90.87-20.04 90.23-20.51 89.82-21.17 89.4-21.83 89.18-22.63 88.96-23.44 88.87-24.27L88.87-24.27Q88.67-25.54 88.67-26.61 88.67-27.69 88.21-28.44 87.74-29.2 86.45-29.64 85.16-30.08 82.42-30.08L82.42-30.08Q81.64-30.08 80.2-29.93 78.76-29.79 77.34-29.42 75.93-29.05 74.88-28.37 73.83-27.69 73.83-26.66L73.83-26.66Q73.83-26.07 73.95-25.51 74.07-24.95 74.07-24.37L74.07-24.37Q74.07-23.88 74.02-23.39 73.97-22.9 73.97-22.36L73.97-22.36Q73.97-21.04 74.12-19.75 74.27-18.46 74.27-17.14L74.27-17.14Q74.27-15.72 73.9-14.36 73.54-12.99 73.54-11.57L73.54-11.57Q73.54-10.01 74.29-9.11 75.05-8.2 76.22-7.74 77.39-7.28 78.76-7.13 80.13-6.98 81.3-6.98L81.3-6.98Q83.64-6.98 85.99-7.28 88.33-7.57 90.67-7.57L90.67-7.57Q92.14-7.57 93.6-7.42 95.07-7.28 96.53-7.28L96.53-7.28Q97.66-7.28 99.02-7.35 100.39-7.42 101.64-7.81 102.88-8.2 103.78-8.96 104.69-9.72 104.93-11.13L104.93-11.13Q104.98-11.52 105.2-11.69 105.42-11.87 105.69-11.99 105.96-12.11 106.15-12.26 106.35-12.4 106.35-12.74L106.35-12.74Q106.35-13.13 106.05-13.65 105.76-14.16 105.66-14.6L105.66-14.6Q105.47-15.53 105.44-16.48 105.42-17.43 105.42-18.36L105.42-18.36Q105.42-19.82 105.88-20.92 106.35-22.02 106.35-23.34L106.35-23.34Q106.35-23.73 106.32-24.07 106.3-24.41 106.3-24.8L106.3-24.8Q106.3-25.1 106.74-25.39 107.18-25.68 107.76-25.9 108.35-26.12 108.94-26.27 109.52-26.42 109.81-26.42L109.81-26.42Q111.04-26.42 111.82-25.56 112.6-24.71 113.01-23.49 113.43-22.27 113.57-20.95 113.72-19.63 113.72-18.7L113.72-18.7Q113.72-17.19 113.48-15.28 113.23-13.38 112.82-11.38 112.4-9.38 111.87-7.5 111.33-5.62 110.79-4.2L110.79-4.2Q110.5-3.52 110.23-3.17 109.96-2.83 109.64-2.61 109.33-2.39 108.96-2.17 108.59-1.95 108.15-1.46L108.15-1.46Q107.76-1.03 106.67-0.88 105.57-0.73 104.35-0.73L104.35-0.73Q103.42-0.73 102.59-0.78 101.76-0.83 101.32-0.83L101.32-0.83Q99.71-0.83 98.71-0.44 97.71-0.05 96.83-0.05L96.83-0.05Q96.19-0.05 96-0.32 95.8-0.59 95.41-0.59L95.41-0.59Q95.07-0.59 94.78-0.29 94.48 0 93.9 0L93.9 0Q93.31 0 92.7-0.02 92.09-0.05 91.46-0.05L91.46-0.05Q87.79-0.05 84.18 0.17 80.57 0.39 76.9 0.49L76.9 0.49Q74.41 0.59 71.97 1.07 69.53 1.56 67.04 1.56L67.04 1.56Q66.16 1.56 65.04 1.39 63.92 1.22 62.92 0.78 61.91 0.34 61.23-0.42 60.55-1.17 60.55-2.29L60.55-2.29Q60.55-3.37 61.33-4.35 62.11-5.32 63.21-6.15 64.31-6.98 65.48-7.69 66.65-8.4 67.38-9.03L67.38-9.03Q67.33-9.42 67.33-9.77 67.33-10.11 67.33-10.45L67.33-10.45Q67.33-11.18 67.36-11.91 67.38-12.65 67.63-13.38L67.63-13.38Q67.72-13.82 68.14-14.43 68.55-15.04 68.55-15.48L68.55-15.48Q68.55-15.82 68.43-16.11 68.31-16.41 68.21-16.75L68.21-16.75Q67.68-18.07 67.46-19.09 67.24-20.12 67.24-21.58L67.24-21.58Q67.24-22.46 67.26-23.12 67.29-23.78 67.36-24.39 67.43-25 67.6-25.66 67.77-26.32 68.07-27.15L68.07-27.15Q67.87-27.49 67.63-28.17 67.38-28.86 67.38-29.25L67.38-29.25 68.07-36.18Q68.02-36.33 68.02-36.67L68.02-36.67Q68.02-37.11 68.16-37.55 68.31-37.99 68.31-38.48L68.31-38.48Q68.31-39.6 67.92-40.7 67.53-41.8 67.53-42.92L67.53-42.92Q67.53-43.31 67.72-43.85 67.92-44.38 68.14-45.02 68.36-45.65 68.55-46.41 68.75-47.17 68.75-48.05L68.75-48.05Q68.75-48.73 68.43-49.22 68.12-49.71 68.12-50.34L68.12-50.34Q68.12-50.93 68.41-51.51 68.7-52.1 68.7-52.78L68.7-52.78Q68.7-53.76 68.33-54.66 67.97-55.57 67.58-56.4L67.58-56.4Q66.99-57.62 66.67-58.37 66.36-59.13 65.92-59.59 65.48-60.06 64.72-60.28 63.96-60.5 62.55-60.6L62.55-60.6Q61.87-60.64 61.25-61.01 60.64-61.38 60.18-61.96 59.72-62.55 59.42-63.23 59.13-63.92 59.13-64.55L59.13-64.55Q59.13-65.43 59.91-66.04 60.69-66.65 61.91-67.02 63.13-67.38 64.65-67.6 66.16-67.82 67.6-67.94 69.04-68.07 70.24-68.12 71.44-68.16 72.07-68.26L72.07-68.26Q73.05-68.41 73.97-68.46 74.9-68.51 75.88-68.51L75.88-68.51Q77.78-68.51 79.71-68.38 81.64-68.26 83.54-68.26L83.54-68.26Q85.6-68.26 87.57-68.65 89.55-69.04 91.6-69.04L91.6-69.04Q93.46-69.04 95.26-68.63 97.07-68.21 98.83-68.21L98.83-68.21Q100.54-68.21 102.2-68.63 103.86-69.04 105.57-69.04L105.57-69.04Q106.3-69.04 107.03-68.9L107.03-68.9Q108.11-67.72 109.01-66.94 109.91-66.16 110.57-65.36 111.23-64.55 111.65-63.48 112.06-62.4 112.21-60.64L112.21-60.64Q112.26-60.01 112.26-59.11 112.26-58.2 112.3-57.35 112.35-56.49 112.57-55.81 112.79-55.13 113.28-54.98L113.28-54.98Q113.28-54.3 112.6-54.3L112.6-54.3Q112.65-53.61 112.89-52.91 113.13-52.2 113.38-51.49 113.62-50.78 113.82-50.07 114.01-49.37 114.01-48.73ZM71.73-36.72L71.73-36.72Q71.44-36.72 71.19-36.62 70.95-36.52 70.85-36.18L70.85-36.18Q72.71-35.11 73.8-34.16 74.9-33.2 75.51-32.62 76.12-32.03 76.42-31.96 76.71-31.88 77-32.57L77-32.57Q77.39-33.45 76.88-34.23 76.37-35.01 75.46-35.55 74.56-36.08 73.51-36.4 72.46-36.72 71.73-36.72Z" transform="translate(-3.0299999713897705, 69.04000091552734)"></path></g> <!----> <!----> <!----> <!----> <!----> <!----> <!----></g></g> <g data-gra="path-slogan" fill-rule="" class="tp-slogan" transform="translate(0,77.5999984741211)"><!----> <!----> <g transform="scale(1, 1)"><g transform="scale(1)"><path d="M1.08 0L1.08-7.87L3.49-7.87Q4.14-7.87 4.68-7.75Q5.22-7.63 5.60-7.36Q5.98-7.09 6.19-6.65Q6.40-6.20 6.40-5.56L6.40-5.56Q6.40-4.93 6.19-4.48Q5.98-4.02 5.59-3.72Q5.21-3.42 4.67-3.27Q4.14-3.12 3.49-3.12L3.49-3.12L2.08-3.12L2.08 0L1.08 0ZM2.08-3.94L3.37-3.94Q4.40-3.94 4.90-4.33Q5.40-4.72 5.40-5.56L5.40-5.56Q5.40-6.41 4.90-6.74Q4.39-7.07 3.37-7.07L3.37-7.07L2.08-7.07L2.08-3.94ZM11.99-7.07L11.99-4.14L13.31-4.14Q14.23-4.14 14.72-4.52Q15.22-4.90 15.22-5.66L15.22-5.66Q15.22-6.44 14.72-6.76Q14.23-7.07 13.31-7.07L13.31-7.07L11.99-7.07ZM16.44 0L15.31 0L13.42-3.32L11.99-3.32L11.99 0L10.99 0L10.99-7.87L13.45-7.87Q14.05-7.87 14.56-7.76Q15.07-7.64 15.44-7.38Q15.80-7.12 16.01-6.70Q16.21-6.28 16.21-5.66L16.21-5.66Q16.21-4.74 15.73-4.19Q15.25-3.64 14.45-3.43L14.45-3.43L16.44 0ZM23.87 0.14L23.87 0.14Q23.12 0.14 22.51-0.14Q21.89-0.43 21.44-0.97Q21-1.50 20.75-2.26Q20.51-3.02 20.51-3.97L20.51-3.97Q20.51-4.92 20.75-5.67Q21-6.42 21.44-6.94Q21.89-7.46 22.51-7.74Q23.12-8.02 23.87-8.02L23.87-8.02Q24.61-8.02 25.23-7.73Q25.85-7.45 26.30-6.93Q26.75-6.41 26.99-5.66Q27.24-4.91 27.24-3.97L27.24-3.97Q27.24-3.02 26.99-2.26Q26.75-1.50 26.30-0.97Q25.85-0.43 25.23-0.14Q24.61 0.14 23.87 0.14ZM23.87-0.73L23.87-0.73Q24.40-0.73 24.82-0.96Q25.25-1.19 25.55-1.61Q25.86-2.04 26.03-2.63Q26.20-3.23 26.20-3.97L26.20-3.97Q26.20-4.70 26.03-5.29Q25.86-5.88 25.55-6.29Q25.25-6.70 24.82-6.92Q24.40-7.14 23.87-7.14L23.87-7.14Q23.34-7.14 22.91-6.92Q22.49-6.70 22.18-6.29Q21.88-5.88 21.71-5.29Q21.54-4.70 21.54-3.97L21.54-3.97Q21.54-3.23 21.71-2.63Q21.88-2.04 22.18-1.61Q22.49-1.19 22.91-0.96Q23.34-0.73 23.87-0.73ZM31.93 0L31.93-7.87L33.11-7.87L34.63-3.65L35.21-2.04L35.26-2.04L35.81-3.65L37.32-7.87L38.50-7.87L38.50 0L37.55 0L37.55-4.33Q37.55-4.86 37.59-5.50Q37.63-6.13 37.68-6.66L37.68-6.66L37.63-6.66L37.00-4.91L35.48-0.79L34.92-0.79L33.40-4.91L32.77-6.66L32.72-6.66Q32.76-6.13 32.81-5.50Q32.86-4.86 32.86-4.33L32.86-4.33L32.86 0L31.93 0ZM43.66 0L43.66-7.87L46.07-7.87Q46.72-7.87 47.26-7.75Q47.80-7.63 48.17-7.36Q48.55-7.09 48.76-6.65Q48.97-6.20 48.97-5.56L48.97-5.56Q48.97-4.93 48.76-4.48Q48.55-4.02 48.17-3.72Q47.78-3.42 47.25-3.27Q46.72-3.12 46.07-3.12L46.07-3.12L44.65-3.12L44.65 0L43.66 0ZM44.65-3.94L45.95-3.94Q46.98-3.94 47.48-4.33Q47.98-4.72 47.98-5.56L47.98-5.56Q47.98-6.41 47.47-6.74Q46.97-7.07 45.95-7.07L45.95-7.07L44.65-7.07L44.65-3.94ZM54.91 0L54.91-7.03L52.54-7.03L52.54-7.87L58.30-7.87L58.30-7.03L55.92-7.03L55.92 0L54.91 0ZM68.14 0L68.14-7.87L72.67-7.87L72.67-7.03L69.13-7.03L69.13-4.56L72.12-4.56L72.12-3.71L69.13-3.71L69.13-0.85L72.79-0.85L72.79 0L68.14 0ZM76.56 0L78.85-4.07L76.72-7.87L77.82-7.87L78.89-5.86Q79.04-5.58 79.18-5.32Q79.32-5.06 79.50-4.72L79.50-4.72L79.55-4.72Q79.72-5.06 79.84-5.32Q79.97-5.58 80.11-5.86L80.11-5.86L81.16-7.87L82.21-7.87L80.06-4.02L82.36 0L81.25 0L80.10-2.12Q79.94-2.41 79.78-2.72Q79.62-3.02 79.43-3.38L79.43-3.38L79.38-3.38Q79.21-3.02 79.06-2.72Q78.90-2.41 78.76-2.12L78.76-2.12L77.62 0L76.56 0ZM86.62 0L86.62-7.87L89.03-7.87Q89.68-7.87 90.22-7.75Q90.76-7.63 91.13-7.36Q91.51-7.09 91.72-6.65Q91.93-6.20 91.93-5.56L91.93-5.56Q91.93-4.93 91.72-4.48Q91.51-4.02 91.13-3.72Q90.74-3.42 90.21-3.27Q89.68-3.12 89.03-3.12L89.03-3.12L87.61-3.12L87.61 0L86.62 0ZM87.61-3.94L88.91-3.94Q89.94-3.94 90.44-4.33Q90.94-4.72 90.94-5.56L90.94-5.56Q90.94-6.41 90.43-6.74Q89.93-7.07 88.91-7.07L88.91-7.07L87.61-7.07L87.61-3.94ZM96.53 0L96.53-7.87L101.06-7.87L101.06-7.03L97.52-7.03L97.52-4.56L100.51-4.56L100.51-3.71L97.52-3.71L97.52-0.85L101.18-0.85L101.18 0L96.53 0ZM106.85-7.07L106.85-4.14L108.17-4.14Q109.09-4.14 109.58-4.52Q110.08-4.90 110.08-5.66L110.08-5.66Q110.08-6.44 109.58-6.76Q109.09-7.07 108.17-7.07L108.17-7.07L106.85-7.07ZM111.30 0L110.17 0L108.28-3.32L106.85-3.32L106.85 0L105.85 0L105.85-7.87L108.31-7.87Q108.91-7.87 109.42-7.76Q109.93-7.64 110.30-7.38Q110.66-7.12 110.87-6.70Q111.07-6.28 111.07-5.66L111.07-5.66Q111.07-4.74 110.59-4.19Q110.11-3.64 109.31-3.43L109.31-3.43L111.30 0ZM117.22 0L117.22-7.03L114.84-7.03L114.84-7.87L120.60-7.87L120.60-7.03L118.22-7.03L118.22 0L117.22 0Z" transform="translate(-1.08, 8.016)"></path></g></g></g></g></g>
<defs>
<clipPath id="clip0_109_2">
<rect width="140" height="140" fill="white"/>
</clipPath>
</defs>
</svg>

